<?xml version="1.0" encoding="utf-8"?>
<!-- Generator: Adobe Illustrator 25.2.0, SVG Export Plug-In . SVG Version: 6.00 Build 0)  -->
<svg version="1.1" id="Слой_2" xmlns="http://www.w3.org/2000/svg" xmlns:xlink="http://www.w3.org/1999/xlink" x="0px" y="0px"
	 width="1590px" height="627.9px" viewBox="0 0 1590 627.9" style="enable-background:new 0 0 1590 627.9;" xml:space="preserve">
<path d="M1577,474.6v-9.1l-11.5-1v-5.8h-9.5l-4.8,5.8l-11-0.6l-7.6,0.6v8.6l-4.4,1l-3.9,3.9v31.6h-13V500h-16.4l-5.8-5.4l-9.1,1v4.4
	h-10.1V385.1l-12.4,0.6l-13.9,13.4l-11.5-6.4l-19.6-1.5V410l-8.1,0.6v71.1l-13-0.6v-121l-23.1-0.6v-13.4l-54.3,0.6V464h-55.5
	l-2.5-3.5l-7.2-1l-2.9-6.6l-7.6-1.9v-11l-52.3,2.5v14.9l-5.8,0.6v29.4h-4.8v-11l-15.9-1.9h-2.9V452l-2.5,0.6v22.1h-13.4v-31.8
	l-3.9-6.6l-5.4-0.6l-7.6-18.4h-38l-6.4,20.2l-20.3-70.6l-9.1-1.9v-3.6h-7.6l-2.9-3.9l-4.4,3.9l-8.1,1l-7.2-10.1l-11.5,0.6h-6.6
	l-17.4-1.5l3.5-30.4l1-47.1l2.9-7.2l5.8-3.9v-14.4l-9.1-7.6V234l-4.8-22.1l3.6-8h-5.4l-3.6-16.8l-3.5-4.8l-5.2-170.7l-1,170.1
	l-2.9,5.4l-3.5,16.8h-5.2l3.7,7.5l-4.7,23.2l-0.6,7.2l-10.1,7.6l1,14.5l5.8,2.9l3.5,8.6l1.5,46.1l3.5,33.1v108h-23.2V317.2h-9.9
	v-11.3c3-0.8,5.7-1.8,6.4-2.9c0,0,0.8-3.2-1.5-5.2c-4.7-4.3-17.4-8.6-17.4-8.6l-1.5-22.4H885l-1.1,20.3c0,0-3.9-0.1-10.5,0.8
	c-19.1,2.8-27.6,10.9-25.3,14.1c0.1,0.3,0.4,0.6,0.7,0.8l-0.3,14.1l-4.4,1.8v68.5l-30.4,0.7v-4h-22.4v3.6l-19.7,0.7l-2.2-20.2v21.5
	l-2.2,3.6v46.1h-15.5v-51.9l-8.3-1.1v-5.1h-4.1v-7.9l-5.8-0.7l-1.9-9l-4.7-0.7l-2.5-2.6c-2.5-9.7-9-17-17-18.1l-2.6-40.3l-0.6,40.2
	c-8.8,0.7-16.2,9-18.4,19.9l-2.3,2.5h-5.1v5.5h-11.5v7.9h-6.2v7.9h-3.6l-5.1,1.8l0.4,10.1h2.2V422h-10.8v30h-7.5v2.2l-5.8,1.5v4
	h-15.2v-7.3l-5.5-0.7v-6.8l-3.6-0.7V429l-2.9-0.4v15.2l-4.7,0.4v-1.5L585,438l-18.6,6.5l-15.5,14.8v12.6l-5.8-0.4l-1.8-28.9l5.5-0.4
	v-3.6H502h-3.6v-22.8l-23.8-0.3l-2.9-3.6l-3.3-3.3h-6.2v2.9h-10.8v4h-6.8v6.4h-5.5v4h-5.8v5.1h-1.8l0.4,20.4h-26.4v-12.8l-31.3-2.2
	l-45.7,4v4.7l-2.2,0.4l-9-0.4v-2.5l-7.2-0.4l-5.8-5.8l-6.8,0.4l-2.2,4.7l-1.8,0.4v3.3h-2.3v-6.8H289v7.2l-9.7,0.4v-7.5h-2.2v7.9
	l-2.9,0.4v-6.4h-2.9v7.2h-5.8v6.8l-2.2,0.7v21.3l-6.4,0.4v9.4l-2.5-2.5l-4.4,1.1v3.3l-2.9,1.5v2.2h2.9v3.6l-2.5,0.4l0.7,2.2h1.8v3.6
	l-1.8,0.4v1.8l-24.2-0.4v-27.3l-4.4-0.4l-2.9,1.8l-17-0.4l-4,4.7l-16.6-0.4v-5.2l-5.8-1.8l-5.8,3.6v4l-13,1.5v-30l-4-2.9l-9,0.4
	v-3.3h-8.3v4.7h-4.7l-2.9,1.8V466c0,0-0.3,1.7-2.2-0.4c-1.9-1.9-7.2-4-7.2-4l-1.1-6.2l-1.2,5.8l-8.8,5.1l-33.8,1.5l-3.6-5.8H23.1
	v4.4H0.5v64.9L0,632.3l1589-4.5v-118v-33.6L1577,474.6z M856.1,311.1c-0.7,1.1-5.7,5-5.7,5l0.3-11.9c1.7,1.1,3.9,2.2,6.2,2.3
	C861.5,306.8,856.8,310,856.1,311.1z M917.9,317.3l-0.7-9.7c0,0,3.7-0.6,7.5-1.4V317L917.9,317.3z"/>
</svg>
