<?xml version="1.0" encoding="utf-8"?>
<!-- Generator: Adobe Illustrator 25.2.0, SVG Export Plug-In . SVG Version: 6.00 Build 0)  -->
<svg version="1.1" id="Layer_1" xmlns="http://www.w3.org/2000/svg" xmlns:xlink="http://www.w3.org/1999/xlink" x="0px" y="0px"
	 width="656.3px" height="291.5px" viewBox="0 0 656.3 291.5" style="enable-background:new 0 0 656.3 291.5;" xml:space="preserve"
	>
<style type="text/css">
	.st0{fill:#009100;}
</style>
<g>
	<g>
		<g>
			<g>
				<path d="M31.5,285c-8.9,0-14.9-6-14.9-14.9c0-18.2,23.6-45.2,74.1-45.2h6.4c31.4-45.9,51.4-107.1,51.4-129.5
					c0-5.4-1.1-7.9-2.1-7.9c-8.8,0-37.1,43.2-37.1,79.6c0,5.4,0.6,10.2,1.8,14.2l0.1,0.4v0.8c0,1.5-0.8,2.9-2.2,3.6
					c-1.4,0.8-3.5,1.3-5.2,1.3c-2.5,0-4.4-1.3-4.9-3.3c-0.9-3.8-1.4-8.2-1.4-13.9c0-25.1,22-103.9,60.1-103.9
					c5.1,0,13.8,2.4,13.8,18.6c0,26.5-25.6,92.1-59.2,139.9h271.1c3.6,0,65.7,0,65.7,0l-43.3,32.3c0,0-236.3-21.4-275-21.7
					c-10-0.1-18.9-0.2-26.3-0.3C79.6,267.8,54.3,285,31.5,285z M85.5,235.2c-39.2,0-59.4,24.9-59.4,35.5c0,1.9,0.5,3.9,4.4,3.9
					c23.5,0,44.7-20.4,59.3-39.4H85.5z"/>
				<path d="M145.8,84.4c-11.8,0-39.9,46.5-39.9,82.4c0,5.6,0.6,10.7,1.9,15v0.3c0,0.5-0.3,0.8-0.6,1c-0.8,0.5-2.4,1-3.7,1
					c-1,0-1.8-0.3-1.9-1c-1-3.8-1.3-8.2-1.3-13.1c0-25.3,21.6-100.6,56.8-100.6c7.3,0,10.7,5.8,10.7,15.5
					c0,26.2-26.2,93.9-61.8,142.5h275.6c4.1,0,12,0,18.8,0.7c8.9,0.9-7.5,23-8.2,22.8c-38.7-17.4-79.1-13.9-121.5-15.9
					c-63-2.9-132.9-2.8-168.1-3.3c-21.7,28.6-46.6,49.6-71.2,49.6c-7.7,0-11.8-5-11.8-11.8c0-15.8,21.7-42.1,70.7-42.1h8
					c31.3-45.3,52.5-108.5,52.5-132.1C150.9,87.8,149,84.4,145.8,84.4z M85.1,231.7c-39.9,0-62.1,25.8-62.1,38.4
					c0,4.2,2.4,6.9,7.3,6.9c23.6,0,46.1-19.2,65-45.3H85.1z"/>
				<path d="M187.3,219.5c-2.2,0-9.3-0.8-9.3-11.4c0-0.5,0-1,0.1-1.5c-6.3,6-13.9,11.6-21.3,11.6c-8.6,0-13.8-5.3-13.8-14.1
					c0-22.1,33.4-66.4,77.3-66.4c4,0,5.1,2.6,5.1,4.1c0,1.4-0.7,2.7-1.8,3.7h4.7c4.2,0,5.8,2.5,5.8,4.6c0,1.3-0.7,2.9-1.7,3.9
					c-19.9,19.9-40.9,45.8-41.9,55.7c5.3-0.8,21.3-11,50-45.2l2.1-2.5l5.9,5.9l-1.7,2.1C222.7,200.1,199.3,219.5,187.3,219.5z
					 M212.9,148c-27.9,7.5-54.4,53.6-55,60.7c9.7-1.4,27.2-23.1,33.2-30.5c3.1-4.5,6.4-9,10-13.8C205.1,159.1,209.2,153.6,212.9,148
					z"/>
				<path d="M217.5,148.6h10.9c1.9,0,2.7,0.6,2.7,1.6c0,0.5-0.3,1.3-0.8,1.8c-16.4,16.4-42.8,46.5-42.8,58.6c0,1.4,0.8,2.4,2.6,2.4
					c6.1,0,23.6-11.6,52.8-46.4l1.6,1.6c-23.7,29.5-46.5,48.3-57.1,48.3c-4,0-6.3-2.7-6.3-8.3c0-3.7,1.1-7.7,3-12
					c-6.3,6.7-17.6,19.1-27.3,19.1c-7.4,0-10.7-4.5-10.7-11.1c0-20.7,32.3-63.4,74.3-63.4c1.4,0,2.1,0.5,2.1,1.1
					c0,1-1.3,2.1-2.1,2.1c-32.1,0-65.5,56.3-65.5,65c0,1.9,0.6,2.9,2.1,2.9c10.6,0,27.8-20.9,36.6-31.8c6.6-9.6,14.9-20.1,22.1-30.8
					C215.7,149.3,216.4,148.6,217.5,148.6z"/>
				<path d="M228.3,217.1c-4.7,0-8.3-3.2-8.3-7.5c0-4,3.9-13.9,10.2-29.7c4.7-11.8,11.4-30.1,11.4-30.1l2.9-7.2l21.4-1.8
					c0,0-6.1,14.5-13.9,30.4c-5.1,10.5-12.6,25.9-14.2,31.9c2.7-1.1,6.7-4.1,11.9-9.9c-0.9-1.5-1.4-3.3-1.4-5.5
					c0-14.1,25.7-45.7,37.2-45.7c3.7,0,6.1,2.4,6.1,6.1c0,7.7-11,23.9-23.3,38.2c7.8-3.2,18-10.8,25.4-19.3l7.6-8.8l4.7,7.1
					l-5.5,6.6c-10.3,12.4-28.9,25.8-41,25.8c-0.6,0-1.2,0-1.8,0C248.6,206.7,236.4,217.1,228.3,217.1z M267.7,167.2
					c-3.1,4-6.2,8.9-8,13C262.9,175.5,265.6,171,267.7,167.2z"/>
				<path d="M253.8,193.1c-1.8-1.1-2.4-3-2.4-5.5c0-13.6,25.2-42.7,34.2-42.7c2.1,0,3,1.1,3,3c0,7.4-13.6,27-28.6,42.8h1.6
					c8.7,0,24.1-10.1,34.3-22l5-5.8l1.3,1.9l-4,4.8c-10.8,13-28.4,24.7-38.7,24.7c-1.1,0-2.1,0-2.9-0.2
					c-10.9,11.1-22,19.7-28.4,19.7c-2.7,0-5.3-1.6-5.3-4.5c0-7.4,20.9-51.7,20.9-59.8c0-3,0-4.2,3.2-4.2h10.9c1.1,0,1.8,0.6,1.8,0.6
					c0,5.1-25.2,50.4-25.2,58.6c0,1.6,0.8,1.8,1.3,1.8C240.6,206.5,247.4,200.8,253.8,193.1z M274.6,155.7c-2.2,0-19.4,20.2-19.4,30
					c0,1.6,0.3,2.9,1.4,3.9c9.9-13,18.8-29,18.8-32.6C275.4,156.2,275.3,155.7,274.6,155.7z"/>
				<path d="M318.1,219.5c-2.2,0-9.3-0.8-9.3-11.4c0-0.5,0-1,0.1-1.5c-6.3,6-13.9,11.6-21.3,11.6c-8.6,0-13.8-5.3-13.8-14.1
					c0-22.1,33.4-66.4,77.3-66.4c4,0,5.1,2.6,5.1,4.1c0,1.4-0.7,2.7-1.8,3.7h4.7c4.2,0,5.8,2.5,5.8,4.6c0,1.3-0.7,2.9-1.7,3.9
					c-19.9,19.9-40.9,45.8-41.9,55.7c5.3-0.8,21.3-11,50-45.2l2.1-2.5l5.9,5.9l-1.7,2.1C353.4,200.1,330.1,219.5,318.1,219.5z
					 M343.7,148c-27.9,7.5-54.4,53.6-55,60.7c9.7-1.4,27.2-23.1,33.2-30.5c3.1-4.5,6.4-9,10-13.8C335.9,159.1,339.9,153.6,343.7,148
					z"/>
				<path d="M348.3,148.6h10.9c1.9,0,2.7,0.6,2.7,1.6c0,0.5-0.3,1.3-0.8,1.8c-16.4,16.4-42.8,46.5-42.8,58.6c0,1.4,0.8,2.4,2.6,2.4
					c6.1,0,23.6-11.6,52.8-46.4l1.6,1.6c-23.7,29.5-46.5,48.3-57.1,48.3c-4,0-6.3-2.7-6.3-8.3c0-3.7,1.1-7.7,3-12
					c-6.3,6.7-17.6,19.1-27.3,19.1c-7.4,0-10.7-4.5-10.7-11.1c0-20.7,32.3-63.4,74.3-63.4c1.4,0,2.1,0.5,2.1,1.1
					c0,1-1.3,2.1-2.1,2.1c-32.1,0-65.5,56.3-65.5,65c0,1.9,0.6,2.9,2.1,2.9c10.6,0,27.8-20.9,36.6-31.8c6.6-9.6,14.9-20.1,22.1-30.8
					C346.5,149.3,347.2,148.6,348.3,148.6z"/>
				<path d="M358.4,220.8c-16.9,0-24.5-10.6-24.5-20.4c0-6.7,3.8-11.5,9-11.5c2.1,0,4.1,1.1,5.8,3.3l1.8,2.3l-2.3,1.9
					c-2.5,2.1-3.9,4.1-3.9,6c0,3.7,5.4,6.8,11.7,6.8c9.3,0,21.8-9.8,21.8-19.9c0-3.2-1.2-6.4-2.7-10.1c-1.8-4.5-3.7-9.6-3.7-15.9
					c0-15.7,13.8-19.1,26-22c8.1-2,16.5-4,21.3-9.2l4.2-4.5l1,6.1c0.3,2.1,0.5,4,0.5,5.8c0,10.4-5.8,16.2-16.3,16.2h-6.6
					c-13.1,0-19.8,2.1-19.8,6.1c0,3.9,3.2,8.1,6.6,12.6c4.2,5.5,8.9,11.8,8.9,19.3C397.4,212.8,372,220.8,358.4,220.8z"/>
				<path d="M380.9,189.2c0-8.2-6.4-15.2-6.4-26c0-22.6,33.2-14.9,46.5-29.2c0.3,1.9,0.5,3.7,0.5,5.3c0,8.5-4.3,13.2-13.3,13.2h-6.6
					c-9.9,0-22.8,1-22.8,9.1c0,10.3,15.6,19.6,15.6,31.9c0,16.7-23.1,24.2-35.9,24.2c-15.6,0-21.5-9.8-21.5-17.3
					c0-4.7,2.2-8.5,5.9-8.5c1.1,0,2.2,0.6,3.4,2.1c-3.5,2.9-5,5.8-5,8.3c0,5.6,6.7,9.8,14.8,9.8
					C367.2,212.2,380.9,200.8,380.9,189.2z"/>
				<path d="M413.7,218.7c-9.3,0-14.9-5.3-14.9-14.1c0-22.2,34.6-63.8,65.3-63.8c8.3,0,13.1,4.6,13.1,12.5
					C477.3,173.8,441,218.7,413.7,218.7z M460.1,151.3c-14,0-45.4,45.5-45.4,57.6c0,0.2,0,0.4,0,0.5c21-0.2,45.9-42.9,45.9-56.2
					c0-1.3-0.3-1.9-0.4-2L460.1,151.3z M414.3,209.4"/>
				<path d="M474.2,153.3c0,19.4-35,62.4-60.5,62.4c-8.3,0-11.9-4.5-11.9-11.1c0-20.2,32.4-60.8,62.3-60.8
					C471.3,143.8,474.2,147.5,474.2,153.3z M411.7,209c0,2.2,0.8,3.5,2.9,3.5c22.9,0,49.1-44,49.1-59.2c0-3-1.1-5-3.5-5
					C444.2,148.3,411.7,195.6,411.7,209z"/>
				<path d="M471.4,219c-4.4,0-9-2.5-9-9.6c0-2.8,0.7-6.4,2.1-10.7c7-20.4,41-73.8,61.3-105.7c6.8-10.7,12.2-19.2,14.1-22.5l3.1-4.9
					l31,0.1c0,0-5.3,7.2-6.4,8.5c-12.4,14.9-72.5,101.3-86.5,127.9c-1.1,2.1-1.8,3.7-2.3,4.8c1.3-0.7,3-1.7,5.4-3.3
					c7.6-4.9,24.3-17.6,51.5-48.8l2.6-3l7.2,6.9l-2.1,2.5c-17.9,21.5-35.9,38.8-50.6,48.8C483.4,216.1,476.4,219,471.4,219z"/>
				<path d="M474.9,203.3c-2.1,4.2-3,6.7-3,8.2c0,1,0.5,1.4,1.3,1.4c1.8,0,5-1.9,8.7-4.5c9.1-6.1,23.4-19.1,42.5-41.9l1.6,1.6
					c-14.8,18.5-29.2,32.7-40.6,40.8c-5.5,3.7-11.6,7.1-15.6,7.1c-2.6,0-4.3-1.4-4.3-5.1c0-1.9,0.5-4.7,1.6-8.2
					c7.5-22.8,55-96.9,61.1-108.1c1-1.6,1-1.9,2.7-2.1c1.3-0.2,9.6-0.5,13.2-0.5c1.8,0,2.6,0.2,2.6,0.8c0,0.3-0.3,0.8-1,1.6
					C536,106.4,486.6,180.2,474.9,203.3z"/>
				<path d="M427.2,284.3c-8,0-10.9-4.3-10.9-8.3c0-11.3,23.1-32.6,59.3-40.9c11.6-16.1,23.4-35,34.8-53.4
					c7.4-11.9,14.4-23.1,21.2-33.4c0.9-1.3,2.8-2.8,5.2-2.8c1.6,0,11.8,0.2,11.8,0.2c2.2,0,3.9,1.7,3.9,3.8c0,1.1-0.5,2-1.2,3.3
					l-0.1,0.1l-0.1,0.1c-7.3,9.6-15.2,21.1-23.6,33.3c-10.6,15.4-21.6,31.2-32.8,45.7c3.7-0.3,7.2-0.4,10.6-0.4
					c4.1,0,17.5,0.8,17.5,0.8l-7.9,10.7c0,0-24-0.7-29.1,0.1C462.5,271.3,443.9,284.3,427.2,284.3z M425.9,275.1
					c0,0,0.7,0.5,3.1,0.5c9.5,0,21.5-8.8,36.4-27C441.3,257,425.9,270.9,425.9,275.1C425.9,275.1,425.9,275.1,425.9,275.1z
					 M549.5,139.1c-4.9,0-8-2.9-8-7.7c0-9.3,12.2-25.6,21.2-25.6c3.9,0,8,2.7,8,8.5C570.7,122.9,559.4,139.1,549.5,139.1z"/>
				<path d="M537,148.6c1.6,0,11.7,0.2,11.7,0.2s1,0,1,0.8c0,0.3-0.3,1-0.8,1.8c-17.5,23.1-39,57.3-60.8,84.6
					c5.5-0.6,11.4-1.1,17.3-1.1c4,0,8.2,0.3,12.4,0.6c0.6,0,0.8,0.3,0.8,0.8c0,0.6-1,4-2.4,4c-5-0.8-9.9-1.1-14.8-1.1
					c-5.8,0-11.6,0.5-17.2,1.4c-19.3,23.3-39,40.8-57,40.8c-5.3,0-7.9-2.1-7.9-5.3c0-9.8,22.9-30.5,58.1-38.2
					c19.3-26.6,39.1-61.1,56.8-87.8C534.3,150.1,535.2,148.6,537,148.6z M429,278.6c13.5,0,28.9-14.9,44.8-35.8
					c-28.9,7.7-50.9,24.9-50.9,32.3C422.9,277.3,424.8,278.6,429,278.6z M567.6,114.3c0,7.7-10.4,21.8-18.1,21.8c-3.5,0-5-1.9-5-4.7
					c0-7.9,11.2-22.6,18.1-22.6C564.1,108.8,567.6,109.6,567.6,114.3z"/>
				<path d="M535.9,218.4c-5.4,0-8.9-3.4-8.9-8.7c0-10.5,13.6-29.1,23.5-29.1c4.3,0,8.9,3,8.9,9.6C559.5,200,547,218.4,535.9,218.4z
					 M559.5,180.8c-4,0-10-1.7-10-6.5c0-1.2,0.5-2.5,1.3-3.4c16.4-23.9,54.8-98.4,54.8-98.4l3.5-6.8l25.5,0
					c0,0-40.6,55.7-69.8,112.8C564,180,562.3,180.8,559.5,180.8z"/>
				<path d="M555.8,188.2c0,7.7-10.4,21.8-18.1,21.8c-3.5,0-5-1.9-5-4.7c0-7.9,11.2-22.6,18.1-22.6
					C552.2,182.7,555.8,183.5,555.8,188.2z M558.8,176.8c-2.4,0-5.9-1-5.9-2.7c0-0.3,0.2-0.8,0.5-1.1c15.1-21.5,41.1-66.1,48.3-88.2
					c0.8-2.2,1.8-3.2,4.7-3.5c1.6,0,11.9,0.2,12.8,0.2c1.1,0,1.6,0.3,1.6,0.8c0,1-1.3,2.4-2.1,3.5c-12.7,15.6-35.1,47.2-57.8,90.7
					C560.8,176.6,559.8,176.8,558.8,176.8z"/>
			</g>
		</g>
	</g>
	<g>
		<polygon class="st0" points="484.5,105.6 258.4,105.6 297.4,123.6 284.7,135.9 185.1,90.4 492.5,90.4 		"/>
		<polygon class="st0" points="193.2,63.7 419.3,63.7 380.3,45.7 393,33.3 492.5,78.9 185.1,78.9 		"/>
	</g>
</g>
<g>
</g>
<g>
</g>
<g>
</g>
<g>
</g>
<g>
</g>
<g>
</g>
<g>
</g>
<g>
</g>
<g>
</g>
<g>
</g>
<g>
</g>
<g>
</g>
<g>
</g>
<g>
</g>
<g>
</g>
</svg>
